<svg width="40" height="40" viewBox="0 0 40 40" fill="none" xmlns="http://www.w3.org/2000/svg">
<g id="Emoji">
<path id="Vector" d="M24.4443 11.1111C24.4443 10 25.5554 7.77778 25.5554 5.55556C25.5554 3.33333 25.5554 2.22222 24.4443 1.11111C23.3332 0 22.2221 0 22.2221 0C22.2221 0 21.111 0 19.9999 1.11111C18.8888 2.22222 18.8888 3.33333 18.8888 5.55556C18.8888 7.77778 19.9999 10 19.9999 11.1111C19.9999 14.4444 15.5554 16.6667 15.5554 21.2044C15.5554 24.9078 17.7776 32.2222 18.8888 34.4444H25.5554C26.6665 32.2222 28.8888 24.9078 28.8888 21.2044C28.8888 16.6667 24.4443 14.4444 24.4443 11.1111Z" fill="#CCD6DD"/>
<path id="Vector_2" d="M19.9999 11.1109H24.4444C24.4444 10.5831 24.6966 9.79978 24.9599 8.88867H19.4855C19.7477 9.79978 19.9999 10.5831 19.9999 11.1109ZM26.5577 15.5553C26.0088 14.7987 25.4732 14.0742 25.0777 13.3331H19.3677C18.971 14.0742 18.4355 14.7987 17.8877 15.5553H26.5577Z" fill="#BE1931"/>
<path id="Vector_3" d="M35.5556 14.4444C35.5556 13.3333 36.6667 11.111 36.6667 8.88881C36.6667 6.66658 36.6667 5.55547 35.5556 4.44436C34.4445 3.33325 33.3334 3.33325 33.3334 3.33325C33.3334 3.33325 32.2223 3.33325 31.1112 4.44436C30.0001 5.55547 30.0001 6.66658 30.0001 8.88881C30.0001 11.111 31.1112 13.3333 31.1112 14.4444C31.1112 17.7777 26.6667 19.9999 26.6667 24.5377C26.6667 28.241 28.889 35.5555 30.0001 37.7777H36.6667C37.7779 35.5555 40.0001 28.241 40.0001 24.5377C40.0001 19.9999 35.5556 17.7777 35.5556 14.4444Z" fill="#CCD6DD"/>
<path id="Vector_4" d="M31.1112 14.4444H35.5557C35.5557 13.9166 35.8079 13.1333 36.0712 12.2222H30.5968C30.859 13.1333 31.1112 13.9166 31.1112 14.4444ZM37.669 18.8888C37.1201 18.1322 36.5846 17.4077 36.189 16.6666H30.479C30.0824 17.4077 29.5468 18.1322 28.999 18.8888H37.669Z" fill="#BE1931"/>
<path id="Vector_5" d="M13.9578 40C21.6664 40 27.9156 33.7509 27.9156 26.0423C27.9156 18.3336 21.6664 12.0845 13.9578 12.0845C6.24911 12.0845 0 18.3336 0 26.0423C0 33.7509 6.24911 40 13.9578 40Z" fill="#31373D"/>
<path id="Vector_6" d="M14.3499 23.4511C15.7712 23.4511 16.9233 22.299 16.9233 20.8778C16.9233 19.4566 15.7712 18.3044 14.3499 18.3044C12.9287 18.3044 11.7766 19.4566 11.7766 20.8778C11.7766 22.299 12.9287 23.4511 14.3499 23.4511Z" fill="black"/>
<path id="Vector_7" d="M7.22787 25.8376C8.64909 25.8376 9.80121 24.6855 9.80121 23.2643C9.80121 21.843 8.64909 20.6909 7.22787 20.6909C5.80666 20.6909 4.65454 21.843 4.65454 23.2643C4.65454 24.6855 5.80666 25.8376 7.22787 25.8376Z" fill="black"/>
<path id="Vector_8" d="M12.701 33.7433C14.1222 33.7433 15.2744 32.5912 15.2744 31.17C15.2744 29.7488 14.1222 28.5967 12.701 28.5967C11.2798 28.5967 10.1277 29.7488 10.1277 31.17C10.1277 32.5912 11.2798 33.7433 12.701 33.7433Z" fill="black"/>
</g>
</svg>
