<svg width="124" height="124" viewBox="0 0 124 124" fill="none" xmlns="http://www.w3.org/2000/svg">
<g id="Group 8">
<g id="Group 7">
<path id="Icon" d="M108.5 51.6668H15.5M108.5 59.4168V45.4668C108.5 36.786 108.5 32.4456 106.811 29.13C105.325 26.2135 102.953 23.8423 100.037 22.3562C96.7212 20.6668 92.3808 20.6668 83.7 20.6668H40.3C31.6192 20.6668 27.2788 20.6668 23.9631 22.3562C21.0466 23.8423 18.6754 26.2135 17.1894 29.13C15.5 32.4456 15.5 36.786 15.5 45.4668V88.8668C15.5 97.5476 15.5 101.888 17.1894 105.204C18.6754 108.12 21.0466 110.491 23.9631 111.977C27.2788 113.667 31.6192 113.667 40.3 113.667H64.5833M82.6667 10.3335V31.0002M41.3333 10.3335V31.0002" stroke="#2F6AD8" stroke-width="6" stroke-linecap="round" stroke-linejoin="round"/>
<path id="Vector" d="M92.9999 113.667C92.9999 102.259 102.259 93.0002 113.667 93.0002C102.259 93.0002 92.9999 83.7415 92.9999 72.3335C92.9999 83.7415 83.7413 93.0002 72.3333 93.0002C83.7413 93.0002 92.9999 102.259 92.9999 113.667Z" stroke="#2F6AD8" stroke-width="6" stroke-linecap="round" stroke-linejoin="round"/>
</g>
</g>
</svg>
