<svg width="124" height="124" viewBox="0 0 124 124" fill="none" xmlns="http://www.w3.org/2000/svg">
<g id="Group 10">
<g id="Group 7">
<path id="Icon" d="M28.4468 74.2739C18.9123 78.48 12.9968 84.3412 12.9968 90.8241C12.9968 103.623 36.0542 113.999 64.4968 113.999C92.9395 113.999 115.997 103.623 115.997 90.8241C115.997 84.3412 110.081 78.48 100.547 74.2739M95.3968 41.8991C95.3968 62.8272 72.2218 72.7991 64.4968 88.2491C56.7718 72.7991 33.5968 62.8272 33.5968 41.8991C33.5968 24.8335 47.4312 10.9991 64.4968 10.9991C81.5624 10.9991 95.3968 24.8335 95.3968 41.8991ZM69.6468 41.8991C69.6468 44.7434 67.3411 47.0491 64.4968 47.0491C61.6526 47.0491 59.3468 44.7434 59.3468 41.8991C59.3468 39.0549 61.6526 36.7491 64.4968 36.7491C67.3411 36.7491 69.6468 39.0549 69.6468 41.8991Z" stroke="#2F6AD8" stroke-width="6" stroke-linecap="round" stroke-linejoin="round"/>
</g>
</g>
</svg>
