<svg width="124" height="124" viewBox="0 0 124 124" fill="none" xmlns="http://www.w3.org/2000/svg">
<g id="Group 9">
<path id="Icon" d="M82.6673 17.9168C90.3229 21.7212 95.584 29.6212 95.584 38.75C95.584 47.8788 90.3229 55.7788 82.6673 59.5832M93.0006 86.6263C100.81 90.1601 107.842 95.9191 113.667 103.333M10.334 103.333C20.3909 90.5333 34.0447 82.6667 49.084 82.6667C64.1232 82.6667 77.7771 90.5333 87.834 103.333M72.334 38.75C72.334 51.5906 61.9246 62 49.084 62C36.2434 62 25.834 51.5906 25.834 38.75C25.834 25.9094 36.2434 15.5 49.084 15.5C61.9246 15.5 72.334 25.9094 72.334 38.75Z" stroke="#2F6AD8" stroke-width="6" stroke-linecap="round" stroke-linejoin="round"/>
</g>
</svg>
