<svg width="32" height="33" viewBox="0 0 32 33" fill="none" xmlns="http://www.w3.org/2000/svg">
<g id="Group 14">
<circle id="Ellipse 1497" cx="16" cy="16.5234" r="16" fill="white"/>
<path id="Vector" fill-rule="evenodd" clip-rule="evenodd" d="M32 16.5234C32 25.36 24.8365 32.5234 16 32.5234C7.16347 32.5234 0 25.36 0 16.5234C0 7.6869 7.16347 0.523438 16 0.523438C24.8365 0.523438 32 7.6869 32 16.5234ZM10.7143 15.0578C9.11153 15.7576 7.46473 16.4766 5.95883 17.3061C5.17251 17.8818 6.21759 18.2891 7.19807 18.6711C7.35393 18.7318 7.50813 18.7919 7.65313 18.8519C7.7738 18.889 7.89647 18.9281 8.0208 18.9677C9.11127 19.3151 10.3271 19.7025 11.3858 19.1198C13.1249 18.1208 14.766 16.9658 16.4059 15.8118C16.9432 15.4336 17.4803 15.0556 18.0207 14.6832C18.0461 14.667 18.0746 14.6485 18.1059 14.6283C18.5662 14.3298 19.6016 13.6587 19.2186 14.5835C18.313 15.5739 17.3429 16.4506 16.3677 17.3321C15.7103 17.9262 15.0506 18.5224 14.4066 19.1571C13.8457 19.6128 13.2633 20.5293 13.8913 21.1675C15.3379 22.1802 16.8071 23.1683 18.2755 24.1559C18.7533 24.4772 19.2311 24.7986 19.7079 25.1207C20.516 25.7659 21.779 25.244 21.9567 24.2358C22.0357 23.772 22.115 23.3082 22.1943 22.8444C22.6327 20.2813 23.0713 17.7172 23.4587 15.1458C23.5113 14.7424 23.571 14.339 23.6307 13.9355C23.7755 12.9574 23.9204 11.9782 23.9657 10.9948C23.849 10.0135 22.6591 10.2293 21.997 10.45C18.5935 11.745 15.2241 13.1361 11.8679 14.5517C11.4877 14.7201 11.1023 14.8884 10.7143 15.0578Z" fill="#2F6AD8"/>
</g>
</svg>
