<?xml version="1.0" encoding="utf-8"?><svg viewBox="0 0 502.66 502.66" xmlns="http://www.w3.org/2000/svg" xmlns:xlink="http://www.w3.org/1999/xlink"><style>:root>svg{display:none}:root>svg:target{display:block}</style><svg viewBox="0 0 22 16" id="arrow-left" xmlns="http://www.w3.org/2000/svg"><path d="M20.333 8H1.666m0 0l7 7m-7-7l7-7"/></svg><svg viewBox="0 0 22 16" id="arrow-right" xmlns="http://www.w3.org/2000/svg"><path d="M1.667 8h18.667m0 0l-7 7m7-7l-7-7"/></svg><svg viewBox="0 0 40 40" id="bowling" xmlns="http://www.w3.org/2000/svg"><path d="M24.444 11.111c0-1.111 1.111-3.333 1.111-5.555 0-2.223 0-3.334-1.11-4.445C23.332 0 22.221 0 22.221 0S21.111 0 20 1.111s-1.111 2.222-1.111 4.445c0 2.222 1.11 4.444 1.11 5.555 0 3.333-4.444 5.556-4.444 10.093 0 3.704 2.223 11.018 3.334 13.24h6.666c1.111-2.222 3.334-9.536 3.334-13.24 0-4.537-4.445-6.76-4.445-10.093z"/><path d="M20 11.11h4.444c0-.527.253-1.31.516-2.221h-5.475c.263.91.515 1.694.515 2.222zm6.558 4.445c-.55-.756-1.085-1.48-1.48-2.222h-5.71c-.397.741-.932 1.466-1.48 2.222h8.67zM35.556 14.444c0-1.11 1.11-3.333 1.11-5.555 0-2.222 0-3.334-1.11-4.445-1.111-1.11-2.223-1.11-2.223-1.11s-1.11 0-2.222 1.11c-1.11 1.111-1.11 2.223-1.11 4.445 0 2.222 1.11 4.444 1.11 5.555 0 3.334-4.444 5.556-4.444 10.094 0 3.703 2.222 11.018 3.333 13.24h6.667C37.777 35.556 40 28.24 40 24.538c0-4.538-4.444-6.76-4.444-10.094z"/><path d="M31.111 14.444h4.445c0-.527.252-1.31.515-2.222h-5.474c.262.911.514 1.695.514 2.222zm6.558 4.445c-.549-.757-1.084-1.481-1.48-2.222h-5.71c-.397.74-.932 1.465-1.48 2.222h8.67zM13.958 40c7.708 0 13.958-6.25 13.958-13.958s-6.25-13.958-13.958-13.958C6.249 12.085 0 18.334 0 26.043 0 33.751 6.25 40 13.958 40z"/><path d="M14.35 23.451a2.573 2.573 0 100-5.147 2.573 2.573 0 000 5.147zm-7.122 2.387a2.573 2.573 0 100-5.147 2.573 2.573 0 000 5.147zm5.473 7.905a2.573 2.573 0 100-5.146 2.573 2.573 0 000 5.146z"/></svg><svg viewBox="0 0 124 124" id="calendar" xmlns="http://www.w3.org/2000/svg"><g stroke-width="6" stroke-linecap="round" stroke-linejoin="round"><path d="M108.5 51.667h-93m93 7.75v-13.95c0-8.681 0-13.021-1.689-16.337a15.504 15.504 0 00-6.774-6.774c-3.316-1.69-7.656-1.69-16.337-1.69H40.3c-8.68 0-13.021 0-16.337 1.69a15.5 15.5 0 00-6.774 6.774C15.5 32.446 15.5 36.786 15.5 45.467v43.4c0 8.68 0 13.021 1.69 16.337a15.5 15.5 0 006.773 6.773c3.316 1.69 7.656 1.69 16.337 1.69h24.283M82.667 10.333V31M41.333 10.334V31"/><path d="M93 113.667C93 102.259 102.259 93 113.667 93 102.259 93 93 83.742 93 72.334 93 83.74 83.74 93 72.333 93 83.741 93 93 102.26 93 113.667z"/></g></svg><svg viewBox="0 0 502.664 502.664" id="icon" xmlns="http://www.w3.org/2000/svg"><path d="M153.821 358.226L0 274.337v-46.463l153.821-83.414v54.574L46.636 250.523l107.185 53.431v54.272zm26.273 29.358L282.103 115.08h32.227L212.084 387.584h-31.99zm168.749-29.358v-54.272l107.164-52.999-107.164-52.59v-53.927l153.821 83.522v46.183l-153.821 84.083z"/></svg><svg viewBox="0 0 124 124" id="location" xmlns="http://www.w3.org/2000/svg"><path d="M28.447 74.274c-9.535 4.206-15.45 10.067-15.45 16.55 0 12.799 23.057 23.175 51.5 23.175 28.442 0 51.5-10.376 51.5-23.175 0-6.483-5.916-12.344-15.45-16.55m-5.15-32.375c0 20.928-23.175 30.9-30.9 46.35-7.725-15.45-30.9-25.422-30.9-46.35 0-17.066 13.834-30.9 30.9-30.9 17.065 0 30.9 13.835 30.9 30.9zm-25.75 0a5.15 5.15 0 11-10.3 0 5.15 5.15 0 0110.3 0z"/></svg><svg viewBox="0 0 124 124" id="team" xmlns="http://www.w3.org/2000/svg"><path d="M82.667 17.917C90.323 21.72 95.584 29.62 95.584 38.75c0 9.129-5.261 17.029-12.917 20.833m10.334 27.043c7.809 3.534 14.841 9.293 20.666 16.707m-103.333 0c10.057-12.8 23.71-20.666 38.75-20.666s28.693 7.866 38.75 20.666m-15.5-64.583c0 12.84-10.41 23.25-23.25 23.25s-23.25-10.41-23.25-23.25 10.41-23.25 23.25-23.25 23.25 10.41 23.25 23.25z"/></svg><svg viewBox="0 0 32 33" id="teleg" xmlns="http://www.w3.org/2000/svg"><circle cx="16" cy="16.523" r="16"/><path fill-rule="evenodd" clip-rule="evenodd" d="M32 16.523c0 8.837-7.163 16-16 16s-16-7.163-16-16c0-8.836 7.163-16 16-16s16 7.164 16 16zm-21.286-1.465c-1.602.7-3.25 1.419-4.755 2.248-.786.576.259.983 1.24 1.365.155.06.31.12.454.18l.368.117c1.09.347 2.306.735 3.365.152 1.739-1 3.38-2.154 5.02-3.308.537-.378 1.074-.756 1.615-1.129l.085-.055c.46-.298 1.496-.97 1.113-.044-.906.99-1.876 1.867-2.851 2.748a61.58 61.58 0 00-1.961 1.825c-.561.456-1.144 1.372-.516 2.01a284.056 284.056 0 004.385 2.989l1.432.965c.808.645 2.071.123 2.249-.885l.237-1.392c.439-2.563.877-5.127 1.265-7.698.052-.404.112-.807.172-1.21.145-.979.29-1.958.335-2.941-.117-.981-1.307-.766-1.969-.545-3.404 1.295-6.773 2.686-10.13 4.102-.38.168-.765.336-1.153.506z"/></svg><svg viewBox="0 0 40 40" id="tennis" xmlns="http://www.w3.org/2000/svg"><path d="M26.407 5.44C20.132-.885 9.582-2.04 3.78 3.813c-5.802 5.85-4.66 16.486 1.616 22.814 4.061 4.095 8.897 4.98 13.38 3.523l-.018.015.149-.06c.301-.101.602-.206.9-.327a27.76 27.76 0 013.362-.929c2.112-.438 4.047 1.85 5.663 3.481 1.616 1.63 4.848 6.519 5.656 7.334.808.814 1.616 0 2.425-.815l.808-.815.808-.814c.808-.816 1.616-1.63.808-2.446-.808-.814-5.657-4.073-7.273-5.702-1.616-1.63-3.886-3.58-3.452-5.71.226-1.112.504-2.091.746-2.859 2.256-4.865 1.756-10.315-2.951-15.061z"/><path d="M17.788 30.427c.33-.08.66-.172.987-.278l-.017.015.149-.06c.301-.101.602-.206.9-.327a27.76 27.76 0 013.363-.929c2.111-.438 4.046 1.851 5.662 3.482 1.616 1.629 4.848 6.518 5.656 7.333.808.814 1.616 0 2.425-.815l.808-.815.808-.814c.808-.816 1.616-1.63.808-2.446-.808-.814-5.657-4.073-7.273-5.702-1.616-1.63-3.885-3.58-3.452-5.71.226-1.112.504-2.091.746-2.859.408-.88.723-1.778.942-2.689L17.788 30.427z"/><path d="M23.174 24.996l1.616-1.63 13.74 13.852-1.617 1.63-13.74-13.852zM36 10.083c2.21 0 4-1.805 4-4.033 0-2.227-1.79-4.033-4-4.033s-4 1.806-4 4.033c0 2.228 1.79 4.033 4 4.033z"/></svg><svg viewBox="0 0 32 33" id="vk" xmlns="http://www.w3.org/2000/svg"><circle cx="16" cy="16.523" r="16"/><path fill-rule="evenodd" clip-rule="evenodd" d="M0 16.523c0-8.836 7.163-16 16-16s16 7.164 16 16c0 8.837-7.163 16-16 16s-16-7.163-16-16zm16.837 5.251s.308-.033.466-.2c.144-.152.14-.44.14-.44s-.02-1.343.615-1.541c.626-.195 1.43 1.299 2.283 1.873.645.434 1.134.34 1.134.34l2.28-.032s1.191-.072.626-.992c-.047-.076-.33-.681-1.694-1.925-1.43-1.302-1.238-1.091.483-3.344 1.048-1.371 1.467-2.209 1.336-2.567-.124-.342-.895-.251-.895-.251l-2.566.015s-.19-.025-.332.058c-.137.08-.227.27-.227.27s-.405 1.061-.947 1.964c-1.143 1.904-1.6 2.005-1.786 1.887-.435-.276-.327-1.108-.327-1.698 0-1.847.286-2.616-.555-2.815-.279-.066-.484-.11-1.198-.117-.915-.01-1.69.003-2.13.214-.291.14-.517.453-.379.47.17.023.554.102.757.374.263.352.254 1.14.254 1.14s.151 2.173-.353 2.443c-.346.185-.82-.193-1.839-1.92-.522-.886-.916-1.864-.916-1.864s-.076-.183-.212-.281a1.059 1.059 0 00-.394-.156l-2.438.016s-.366.01-.5.166c-.12.138-.01.426-.01.426s1.91 4.385 4.071 6.594c1.982 2.026 4.233 1.893 4.233 1.893h1.02z"/></svg></svg>