<svg width="40" height="40" viewBox="0 0 40 40" fill="none" xmlns="http://www.w3.org/2000/svg">
<g id="Emoji">
<path id="Vector" d="M26.407 5.44087C20.1317 -0.886319 9.58206 -2.03975 3.77985 3.81154C-2.02237 9.66169 -0.879528 20.2984 5.39583 26.6256C9.45749 30.7208 14.2929 31.6069 18.7751 30.1493L18.758 30.1643L18.9065 30.1044C19.2082 30.003 19.5088 29.8981 19.8071 29.7771C20.6048 29.5029 21.7888 29.1341 23.1693 28.8484C25.2813 28.4105 27.2161 30.6989 28.8321 32.3294C30.4481 33.9588 33.6801 38.8479 34.4881 39.6626C35.2961 40.4772 36.104 39.6626 36.9132 38.8479L37.7212 38.0332L38.5292 37.2186C39.3371 36.4027 40.1451 35.5881 39.3371 34.7734C38.5292 33.9588 33.6801 30.7001 32.0641 29.0708C30.4481 27.4414 28.1784 25.4906 28.6116 23.3612C28.8378 22.2492 29.1156 21.2698 29.3578 20.5024C31.6138 15.6374 31.1144 10.1871 26.407 5.44087Z" fill="#DD2E44"/>
<path id="Vector_2" d="M17.7878 30.427C18.1181 30.3464 18.4484 30.2554 18.7753 30.1493L18.7581 30.1643L18.9067 30.1044C19.2084 30.003 19.509 29.8981 19.8072 29.7772C20.605 29.5029 21.7889 29.1342 23.1695 28.8484C25.2815 28.4105 27.2163 30.699 28.8323 32.3295C30.4483 33.9588 33.6802 38.8479 34.4882 39.6626C35.2962 40.4773 36.1042 39.6626 36.9133 38.8479L37.7213 38.0333L38.5293 37.2186C39.3373 36.4028 40.1453 35.5881 39.3373 34.7735C38.5293 33.9588 33.6802 30.7001 32.0642 29.0708C30.4483 27.4415 28.1786 25.4907 28.6117 23.3612C28.838 22.2493 29.1157 21.2698 29.358 20.5024C29.766 19.6221 30.0814 18.7244 30.2997 17.813L17.7878 30.427Z" fill="#D99E82"/>
<path id="Vector_3" d="M23.1738 24.9963L24.7898 23.3669L38.5291 37.2185L36.9131 38.8479L23.1738 24.9963Z" fill="#FFCC4D"/>
<path id="Vector_4" d="M36 10.0833C38.2091 10.0833 39.9999 8.27769 39.9999 6.05033C39.9999 3.82297 38.2091 2.01733 36 2.01733C33.7908 2.01733 32 3.82297 32 6.05033C32 8.27769 33.7908 10.0833 36 10.0833Z" fill="#CCD6DD"/>
</g>
</svg>
