<svg width="32" height="33" viewBox="0 0 32 33" fill="none" xmlns="http://www.w3.org/2000/svg">
<g id="Group 14">
<circle id="Ellipse 1497" cx="16" cy="16.5234" r="16" fill="white"/>
<path id="Vector" fill-rule="evenodd" clip-rule="evenodd" d="M0 16.5234C0 7.6869 7.16347 0.523438 16 0.523438C24.8365 0.523438 32 7.6869 32 16.5234C32 25.36 24.8365 32.5234 16 32.5234C7.16347 32.5234 0 25.36 0 16.5234ZM16.837 21.7742C16.837 21.7742 17.145 21.7406 17.3027 21.5742C17.4471 21.4218 17.4421 21.1342 17.4421 21.1342C17.4421 21.1342 17.4229 19.7913 18.0582 19.593C18.6843 19.398 19.4881 20.8917 20.3412 21.4661C20.9856 21.9004 21.4747 21.8053 21.4747 21.8053L23.7544 21.7742C23.7544 21.7742 24.9464 21.702 24.3813 20.7819C24.3345 20.7065 24.0515 20.101 22.6868 18.8572C21.2569 17.5552 21.4489 17.7658 23.1701 15.5134C24.2185 14.1417 24.6375 13.3043 24.5065 12.9463C24.3821 12.6038 23.6108 12.6947 23.6108 12.6947L21.0449 12.7103C21.0449 12.7103 20.8545 12.6849 20.7135 12.7676C20.5757 12.8488 20.4864 13.038 20.4864 13.038C20.4864 13.038 20.0807 14.0991 19.539 15.002C18.3963 16.9063 17.9397 17.007 17.7527 16.8891C17.3178 16.613 17.4263 15.7813 17.4263 15.1905C17.4263 13.3445 17.7118 12.5751 16.8712 12.376C16.5924 12.3096 16.3871 12.2662 15.6733 12.2588C14.7577 12.2498 13.983 12.2621 13.5439 12.4727C13.2518 12.6128 13.0264 12.9258 13.1641 12.9438C13.3336 12.9659 13.7176 13.0454 13.9213 13.3174C14.1842 13.669 14.175 14.4572 14.175 14.4572C14.175 14.4572 14.3261 16.6302 13.8219 16.8997C13.4763 17.0849 13.0022 16.7072 11.983 14.9791C11.4613 14.0942 11.0673 13.1159 11.0673 13.1159C11.0673 13.1159 10.9913 12.9332 10.8553 12.8348C10.6909 12.716 10.4613 12.6792 10.4613 12.6792L8.02307 12.6947C8.02307 12.6947 7.6566 12.7046 7.5222 12.861C7.40287 12.9995 7.513 13.2871 7.513 13.2871C7.513 13.2871 9.42207 17.6716 11.584 19.8814C13.5665 21.9069 15.8169 21.7742 15.8169 21.7742H16.837Z" fill="#2F6AD8"/>
</g>
</svg>
